<svg xmlns="http://www.w3.org/2000/svg" xmlns:xlink="http://www.w3.org/1999/xlink" width="48" zoomAndPan="magnify" viewBox="0 0 36 36.000001" height="48" preserveAspectRatio="xMidYMid meet" version="1.0"><defs><g/><clipPath id="00ba388cff"><path d="M 0.488281 0 L 35.511719 0 L 35.511719 35.027344 L 0.488281 35.027344 Z M 0.488281 0 " clip-rule="nonzero"/></clipPath><clipPath id="d352d0a759"><path d="M 5.464844 4.980469 L 30.535156 4.980469 L 30.535156 30.046875 L 5.464844 30.046875 Z M 5.464844 4.980469 " clip-rule="nonzero"/></clipPath><clipPath id="8838af5415"><path d="M 18 30.046875 C 14.652344 30.046875 11.503906 28.746094 9.136719 26.375 C 6.769531 24.011719 5.464844 20.859375 5.464844 17.511719 C 5.464844 14.167969 6.769531 11.015625 9.136719 8.652344 C 11.503906 6.28125 14.652344 4.980469 18 4.980469 C 21.347656 4.980469 24.496094 6.28125 26.863281 8.652344 C 29.230469 11.019531 30.535156 14.167969 30.535156 17.511719 C 30.535156 20.859375 29.230469 24.011719 26.863281 26.375 C 24.496094 28.746094 21.347656 30.046875 18 30.046875 Z M 18 5.730469 C 14.855469 5.730469 11.894531 6.957031 9.667969 9.183594 C 7.445312 11.40625 6.21875 14.367188 6.21875 17.511719 C 6.21875 20.660156 7.445312 23.621094 9.667969 25.84375 C 11.894531 28.070312 14.855469 29.296875 18 29.296875 C 21.144531 29.296875 24.105469 28.070312 26.332031 25.84375 C 28.554688 23.621094 29.78125 20.660156 29.78125 17.511719 C 29.78125 14.367188 28.554688 11.40625 26.332031 9.183594 C 24.105469 6.957031 21.144531 5.730469 18 5.730469 Z M 18 5.730469 " clip-rule="nonzero"/></clipPath></defs><g clip-path="url(#00ba388cff)"><path fill="#ffffff" d="M 0.488281 0 L 35.511719 0 L 35.511719 35.027344 L 0.488281 35.027344 Z M 0.488281 0 " fill-opacity="1" fill-rule="nonzero"/><path fill="#5271ff" d="M 0.488281 0 L 35.511719 0 L 35.511719 35.027344 L 0.488281 35.027344 Z M 0.488281 0 " fill-opacity="1" fill-rule="nonzero"/></g><g clip-path="url(#d352d0a759)"><g clip-path="url(#8838af5415)"><path fill="#ffffff" d="M 5.464844 4.980469 L 30.535156 4.980469 L 30.535156 30.046875 L 5.464844 30.046875 Z M 5.464844 4.980469 " fill-opacity="1" fill-rule="nonzero"/></g></g><g fill="#ffffff" fill-opacity="1"><g transform="translate(11.173242, 23.798121)"><g><path d="M 19.84375 3.5625 C 19.257812 3.71875 18.738281 3.796875 18.28125 3.796875 C 17.832031 3.796875 17.429688 3.765625 17.078125 3.703125 C 16.734375 3.648438 16.363281 3.539062 15.96875 3.375 C 15.570312 3.21875 15.195312 3.035156 14.84375 2.828125 C 14.5 2.617188 14.148438 2.359375 13.796875 2.046875 C 13.148438 1.535156 12.566406 0.976562 12.046875 0.375 C 11.523438 -0.21875 10.515625 -1.34375 9.015625 -3 C 7.523438 -4.65625 6.535156 -5.753906 6.046875 -6.296875 C 5.554688 -6.847656 5.179688 -7.132812 4.921875 -7.15625 L 4.921875 -7.375 C 5.734375 -7.375 6.273438 -7.390625 6.546875 -7.421875 C 6.816406 -7.453125 7.101562 -7.515625 7.40625 -7.609375 C 7.71875 -7.703125 7.976562 -7.828125 8.1875 -7.984375 C 9.007812 -8.503906 9.421875 -9.378906 9.421875 -10.609375 C 9.421875 -11.628906 9.191406 -12.445312 8.734375 -13.0625 C 8.285156 -13.675781 7.648438 -13.988281 6.828125 -14 L 4.234375 -14 L 4.234375 -1.53125 C 4.234375 -1.175781 4.359375 -0.863281 4.609375 -0.59375 C 4.867188 -0.332031 5.1875 -0.203125 5.5625 -0.203125 L 5.828125 -0.203125 L 5.84375 0 L 1.25 0 L 1.25 -0.203125 L 1.53125 -0.203125 C 1.875 -0.203125 2.175781 -0.328125 2.4375 -0.578125 C 2.707031 -0.835938 2.851562 -1.144531 2.875 -1.5 L 2.875 -13.125 C 2.851562 -13.488281 2.710938 -13.800781 2.453125 -14.0625 C 2.203125 -14.320312 1.894531 -14.453125 1.53125 -14.453125 L 1.25 -14.453125 L 1.25 -14.65625 L 6.90625 -14.65625 C 8.132812 -14.65625 9.117188 -14.304688 9.859375 -13.609375 C 10.609375 -12.921875 10.984375 -12.007812 10.984375 -10.875 C 10.984375 -9.738281 10.640625 -8.757812 9.953125 -7.9375 C 9.273438 -7.125 8.441406 -6.71875 7.453125 -6.71875 C 7.453125 -6.71875 7.445312 -6.71875 7.4375 -6.71875 C 7.90625 -6.21875 8.441406 -5.632812 9.046875 -4.96875 C 11.460938 -2.300781 13.007812 -0.625 13.6875 0.0625 C 14.375 0.75 14.976562 1.3125 15.5 1.75 C 16.03125 2.1875 16.492188 2.507812 16.890625 2.71875 C 17.710938 3.164062 18.53125 3.390625 19.34375 3.390625 C 19.507812 3.390625 19.675781 3.375 19.84375 3.34375 Z M 19.84375 3.5625 "/></g></g></g></svg>